<?xml version="1.0" standalone="no"?>
<!DOCTYPE svg PUBLIC "-//W3C//DTD SVG 20010904//EN"
 "http://www.w3.org/TR/2001/REC-SVG-20010904/DTD/svg10.dtd">
<svg version="1.0" xmlns="http://www.w3.org/2000/svg"
 width="1280.000000pt" height="1280.000000pt" viewBox="0 0 1280.000000 1280.000000"
 preserveAspectRatio="xMidYMid meet">
<metadata>
Created by potrace 1.15, written by Peter Selinger 2001-2017
</metadata>
<g transform="translate(0.000000,1280.000000) scale(0.100000,-0.100000)"
fill="#000000" stroke="none">
<path d="M1420 9599 c-113 -71 -208 -129 -212 -129 -4 0 -106 43 -228 96 -121
53 -223 94 -227 91 -3 -4 20 -108 51 -232 31 -123 56 -232 56 -240 0 -9 -72
-98 -160 -197 -89 -100 -157 -184 -153 -188 4 -4 116 -14 248 -23 169 -12 242
-20 248 -29 4 -7 63 -105 129 -218 113 -190 122 -203 132 -180 6 13 49 118 96
234 l85 210 240 53 c132 29 243 54 247 56 4 1 -80 76 -188 166 l-195 164 5 36
c3 20 12 110 21 201 8 91 18 186 21 213 3 26 2 47 -3 46 -4 0 -100 -58 -213
-130z"/>
<path d="M2683 8704 l-28 -116 -114 -43 -113 -42 104 -64 103 -65 3 -117 c1
-64 6 -117 10 -117 4 0 46 33 95 74 l87 74 111 -30 c61 -16 113 -28 115 -25 2
2 -14 48 -36 102 -22 54 -40 104 -40 112 0 8 27 54 60 103 33 49 60 92 60 95
0 3 -53 3 -118 -1 l-118 -7 -73 92 c-40 50 -74 91 -76 91 -1 0 -16 -52 -32
-116z"/>
<path d="M7246 8600 c-117 -73 -217 -129 -225 -127 -9 3 -114 48 -233 100
-120 53 -218 92 -218 89 1 -4 27 -115 59 -247 l59 -240 -136 -154 c-193 -217
-196 -220 -180 -225 7 -2 119 -11 248 -20 201 -14 237 -18 248 -33 7 -10 65
-107 129 -216 64 -109 118 -195 122 -192 3 4 47 108 97 233 l92 226 239 53
c131 29 242 54 246 56 5 1 -77 74 -182 162 -178 149 -191 162 -191 194 0 18 9
127 21 243 11 115 19 214 17 219 -2 5 -97 -49 -212 -121z"/>
<path d="M3718 8393 l-55 -127 -132 -27 c-72 -14 -134 -28 -136 -31 -3 -2 43
-46 101 -97 104 -91 105 -94 100 -130 -13 -88 -28 -232 -25 -236 2 -2 56 28
119 66 63 38 119 69 123 69 4 0 62 -25 129 -55 67 -30 123 -54 125 -52 2 2
-10 64 -27 137 l-31 133 24 26 c13 14 56 62 96 106 l74 80 -124 12 c-68 6
-133 12 -144 12 -15 1 -36 31 -83 116 -35 63 -67 117 -71 120 -5 2 -33 -52
-63 -122z"/>
<path d="M5142 8050 l-34 -79 -51 -10 c-29 -6 -69 -13 -89 -17 l-38 -6 66 -62
67 -61 -12 -84 c-6 -47 -10 -85 -9 -87 2 -1 36 17 77 41 l73 43 76 -34 c41
-19 77 -32 80 -29 3 2 -2 39 -12 81 l-16 76 60 68 60 68 -87 8 -88 9 -38 70
c-21 39 -41 73 -45 77 -4 4 -22 -29 -40 -72z"/>
<path d="M1548 7552 l-35 -78 -81 -13 c-45 -7 -82 -17 -82 -21 0 -5 28 -32 61
-62 l62 -55 -12 -82 c-7 -46 -10 -85 -8 -87 2 -3 35 14 73 36 38 22 73 40 79
40 6 0 43 -16 83 -35 82 -39 80 -41 56 67 l-16 70 62 63 c71 71 72 69 -46 80
l-70 7 -40 74 c-21 40 -42 74 -45 74 -3 0 -21 -35 -41 -78z"/>
<path d="M3550 7199 c-1005 -66 -1888 -287 -2620 -653 -308 -155 -578 -328
-775 -499 l-40 -35 78 -115 c112 -164 271 -360 364 -447 52 -48 117 -96 184
-134 122 -69 359 -223 359 -234 0 -4 -7 -70 -15 -147 -28 -266 -37 -515 -25
-678 11 -147 39 -385 61 -515 l11 -63 63 56 c35 30 65 55 68 55 3 0 8 -25 12
-55 l6 -55 67 56 c689 581 1620 944 2418 944 467 0 1152 -154 1890 -425 249
-92 534 -209 1004 -412 1003 -435 1317 -535 1765 -563 231 -14 787 -19 1025
-10 911 37 1684 214 2421 555 383 178 620 334 836 554 l95 96 -39 33 c-57 51
-237 169 -317 209 -115 58 -187 81 -338 108 -211 38 -428 87 -428 96 0 4 11
20 23 36 43 52 136 188 192 284 67 113 119 269 169 502 40 185 69 348 63 353
-2 2 -37 -7 -77 -21 -40 -14 -75 -25 -77 -25 -2 0 -1 11 3 25 3 14 4 25 2 25
-2 0 -84 -27 -183 -60 -487 -164 -1014 -324 -1285 -389 -371 -90 -875 -129
-1155 -88 -425 63 -742 180 -1250 462 -779 434 -1112 600 -1520 760 -533 209
-1071 337 -1690 401 -187 19 -1116 28 -1345 13z"/>
<path d="M9672 7194 c-5 -10 -31 -69 -56 -131 l-47 -112 -52 -10 c-29 -6 -92
-19 -141 -29 l-89 -17 107 -93 c120 -106 112 -85 92 -257 -7 -60 -12 -112 -10
-114 2 -2 57 28 123 67 l119 72 121 -56 c67 -31 125 -54 128 -50 3 3 -8 64
-24 135 l-30 130 94 103 c109 120 113 111 -66 123 -78 5 -114 11 -123 22 -6 8
-40 65 -74 125 -53 94 -63 108 -72 92z"/>
<path d="M8295 7043 l-30 -116 -107 -40 c-60 -22 -108 -43 -108 -46 1 -3 45
-33 98 -66 l97 -60 6 -105 c4 -58 7 -111 8 -118 1 -16 10 -9 118 80 l68 57
109 -30 c59 -17 110 -29 112 -26 3 2 -14 52 -37 111 l-42 106 67 100 67 101
-123 -7 -123 -7 -68 86 c-37 48 -71 89 -75 91 -4 3 -21 -47 -37 -111z"/>
<path d="M2384 4173 l-36 -82 -72 -11 c-106 -18 -106 -19 -35 -83 l63 -56 -10
-83 c-6 -46 -10 -85 -8 -87 2 -1 37 16 78 38 l75 42 58 -29 c32 -16 68 -32 79
-36 l21 -7 -17 84 -17 84 59 66 58 65 -52 6 c-122 15 -126 16 -137 44 -7 15
-25 49 -41 77 l-29 49 -37 -81z"/>
<path d="M3625 3849 c-28 -84 -57 -154 -65 -158 -8 -4 -76 -25 -150 -46 -74
-21 -138 -41 -143 -45 -4 -3 52 -50 124 -104 l132 -98 -8 -165 c-6 -137 -5
-164 7 -157 7 4 68 48 136 96 l123 89 151 -56 c83 -30 154 -53 156 -50 3 2
-16 71 -42 152 -25 81 -46 152 -46 156 0 5 45 66 100 135 l100 127 -167 5
-167 5 -89 130 c-48 72 -91 131 -95 133 -4 1 -30 -66 -57 -149z"/>
<path d="M5261 3726 l-52 -75 -94 -3 -95 -3 55 -70 c30 -38 55 -77 55 -86 0
-8 -11 -49 -25 -89 -14 -40 -23 -76 -20 -78 2 -3 43 9 89 26 l85 31 76 -55
c41 -30 76 -54 78 -54 1 0 1 42 -1 94 l-3 94 78 58 78 58 -93 25 -92 26 -26
80 c-15 44 -30 84 -34 88 -4 4 -30 -26 -59 -67z"/>
<path d="M6787 3454 c-2 -5 -26 -61 -52 -124 -26 -63 -53 -120 -61 -126 -7 -5
-69 -21 -138 -34 -69 -13 -126 -27 -126 -31 0 -4 45 -46 100 -94 114 -99 107
-80 86 -260 -7 -60 -13 -111 -12 -112 1 -1 55 31 122 72 l121 72 128 -58 c71
-32 129 -58 130 -56 2 1 -12 63 -30 139 l-31 136 94 102 c52 55 93 103 90 105
-2 2 -65 10 -140 16 l-136 12 -70 125 c-38 68 -72 120 -75 116z"/>
</g>
</svg>
